<?xml version="1.0" encoding="UTF-8"?>
<!DOCTYPE svg PUBLIC "-//W3C//DTD SVG 1.1//EN" "http://www.w3.org/Graphics/SVG/1.1/DTD/svg11.dtd">
<svg xmlns="http://www.w3.org/2000/svg" version="1.1" width="40px" height="40px" style="shape-rendering:geometricPrecision; text-rendering:geometricPrecision; image-rendering:optimizeQuality; fill-rule:evenodd; clip-rule:evenodd" xmlns:xlink="http://www.w3.org/1999/xlink">
<g><path style="opacity:1" fill="#55ccde" d="M 3.5,-0.5 C 4.5,-0.5 5.5,-0.5 6.5,-0.5C 6.16879,7.85989 6.50212,16.1932 7.5,24.5C 8.41683,25.1272 9.41683,25.4606 10.5,25.5C 8.04834,25.9861 5.38167,25.9861 2.5,25.5C 3.46987,16.9177 3.80321,8.25108 3.5,-0.5 Z"/></g>
<g><path style="opacity:1" fill="#49bdd9" d="M 6.5,-0.5 C 7.5,-0.5 8.5,-0.5 9.5,-0.5C 9.17949,4.69463 9.51283,9.69463 10.5,14.5C 10.0882,16.9726 11.0882,18.3059 13.5,18.5C 13.5,18.8333 13.5,19.1667 13.5,19.5C 12.8614,20.0968 12.528,20.9302 12.5,22C 12.6842,23.3756 13.3509,24.2089 14.5,24.5C 13.4324,25.4345 12.099,25.7678 10.5,25.5C 9.41683,25.4606 8.41683,25.1272 7.5,24.5C 6.50212,16.1932 6.16879,7.85989 6.5,-0.5 Z"/></g>
<g><path style="opacity:1" fill="#42b3d5" d="M 9.5,-0.5 C 11.5,-0.5 13.5,-0.5 15.5,-0.5C 15.4354,2.97055 15.7687,5.97055 16.5,8.5C 14.1939,10.1394 12.1939,12.1394 10.5,14.5C 9.51283,9.69463 9.17949,4.69463 9.5,-0.5 Z"/></g>
<g><path style="opacity:1" fill="#1d68b8" d="M 27.5,-0.5 C 29.8333,-0.5 32.1667,-0.5 34.5,-0.5C 33.9629,2.97214 34.9629,5.80547 37.5,8C 36.9152,9.30238 36.2485,10.469 35.5,11.5C 35.5,8.16667 33.8333,6.5 30.5,6.5C 29.3915,5.71003 28.0581,5.21003 26.5,5C 27.4061,3.30054 27.7394,1.4672 27.5,-0.5 Z"/></g>
<g><path style="opacity:1" fill="#3590c8" d="M 15.5,-0.5 C 19.5,-0.5 23.5,-0.5 27.5,-0.5C 27.7394,1.4672 27.4061,3.30054 26.5,5C 28.0581,5.21003 29.3915,5.71003 30.5,6.5C 25.6383,6.11763 20.9716,6.7843 16.5,8.5C 15.7687,5.97055 15.4354,2.97055 15.5,-0.5 Z"/></g>
<g><path style="opacity:1" fill="#f1f7fb" d="M 30.5,6.5 C 33.8333,6.5 35.5,8.16667 35.5,11.5C 35.5,12.1667 35.1667,12.5 34.5,12.5C 33.2921,13.2341 31.9587,13.5674 30.5,13.5C 29.1266,13.6567 27.7932,13.49 26.5,13C 28.779,12.5272 30.779,11.5272 32.5,10C 29.0764,9.25335 25.7431,9.42002 22.5,10.5C 18.8887,11.3068 15.8887,13.1402 13.5,16C 16.2784,17.3919 19.2784,17.8919 22.5,17.5C 22.8333,17.5 23.1667,17.5 23.5,17.5C 20.3752,18.4794 17.0419,18.8128 13.5,18.5C 11.0882,18.3059 10.0882,16.9726 10.5,14.5C 12.1939,12.1394 14.1939,10.1394 16.5,8.5C 20.9716,6.7843 25.6383,6.11763 30.5,6.5 Z"/></g>
<g><path style="opacity:1" fill="#0451af" d="M 34.5,-0.5 C 36.1667,-0.5 37.8333,-0.5 39.5,-0.5C 39.5,12.8333 39.5,26.1667 39.5,39.5C 38.1667,39.5 36.8333,39.5 35.5,39.5C 35.8044,30.4161 35.4711,21.4161 34.5,12.5C 35.1667,12.5 35.5,12.1667 35.5,11.5C 36.2485,10.469 36.9152,9.30238 37.5,8C 34.9629,5.80547 33.9629,2.97214 34.5,-0.5 Z"/></g>
<g><path style="opacity:1" fill="#479ece" d="M 22.5,10.5 C 22.4894,12.0174 21.8228,13.1841 20.5,14C 21.6341,15.016 21.3008,15.6827 19.5,16C 20.7375,16.2321 21.7375,16.7321 22.5,17.5C 19.2784,17.8919 16.2784,17.3919 13.5,16C 15.8887,13.1402 18.8887,11.3068 22.5,10.5 Z"/></g>
<g><path style="opacity:1" fill="#1266b7" d="M 34.5,12.5 C 35.4711,21.4161 35.8044,30.4161 35.5,39.5C 33.5,39.5 31.5,39.5 29.5,39.5C 29.8158,31.2476 29.4825,23.081 28.5,15C 29.4158,14.7216 30.0825,14.2216 30.5,13.5C 31.9587,13.5674 33.2921,13.2341 34.5,12.5 Z"/></g>
<g><path style="opacity:1" fill="#ebf5fa" d="M 23.5,17.5 C 24.4959,17.4142 25.3292,17.7476 26,18.5C 27.2787,22.7228 25.7787,25.3895 21.5,26.5C 20.391,26.5569 19.391,26.8902 18.5,27.5C 16.1667,28.1667 13.8333,28.8333 11.5,29.5C 8.72116,29.7214 6.05449,29.388 3.5,28.5C 2.89022,27.609 2.55688,26.609 2.5,25.5C 5.38167,25.9861 8.04834,25.9861 10.5,25.5C 12.099,25.7678 13.4324,25.4345 14.5,24.5C 18.4107,24.2532 21.744,22.7532 24.5,20C 20.8484,19.5014 17.1817,19.3347 13.5,19.5C 13.5,19.1667 13.5,18.8333 13.5,18.5C 17.0419,18.8128 20.3752,18.4794 23.5,17.5 Z"/></g>
<g><path style="opacity:1" fill="#247bc0" d="M 30.5,13.5 C 30.0825,14.2216 29.4158,14.7216 28.5,15C 29.4825,23.081 29.8158,31.2476 29.5,39.5C 27.1667,39.5 24.8333,39.5 22.5,39.5C 22.7693,35.0685 22.436,30.7352 21.5,26.5C 25.7787,25.3895 27.2787,22.7228 26,18.5C 25.3292,17.7476 24.4959,17.4142 23.5,17.5C 23.1667,17.5 22.8333,17.5 22.5,17.5C 21.7375,16.7321 20.7375,16.2321 19.5,16C 21.3008,15.6827 21.6341,15.016 20.5,14C 21.8228,13.1841 22.4894,12.0174 22.5,10.5C 25.7431,9.42002 29.0764,9.25335 32.5,10C 30.779,11.5272 28.779,12.5272 26.5,13C 27.7932,13.49 29.1266,13.6567 30.5,13.5 Z"/></g>
<g><path style="opacity:1" fill="#379ecd" d="M 13.5,19.5 C 17.1817,19.3347 20.8484,19.5014 24.5,20C 21.744,22.7532 18.4107,24.2532 14.5,24.5C 13.3509,24.2089 12.6842,23.3756 12.5,22C 12.528,20.9302 12.8614,20.0968 13.5,19.5 Z"/></g>
<g><path style="opacity:1" fill="#5ad9e3" d="M -0.5,-0.5 C 0.833333,-0.5 2.16667,-0.5 3.5,-0.5C 3.80321,8.25108 3.46987,16.9177 2.5,25.5C 2.55688,26.609 2.89022,27.609 3.5,28.5C 2.51836,31.9619 2.18503,35.6286 2.5,39.5C 1.5,39.5 0.5,39.5 -0.5,39.5C -0.5,26.1667 -0.5,12.8333 -0.5,-0.5 Z"/></g>
<g><path style="opacity:1" fill="#2f94c9" d="M 21.5,26.5 C 22.436,30.7352 22.7693,35.0685 22.5,39.5C 20.8333,39.5 19.1667,39.5 17.5,39.5C 17.2367,35.3998 17.5701,31.3998 18.5,27.5C 19.391,26.8902 20.391,26.5569 21.5,26.5 Z"/></g>
<g><path style="opacity:1" fill="#3fabd2" d="M 18.5,27.5 C 17.5701,31.3998 17.2367,35.3998 17.5,39.5C 15.1667,39.5 12.8333,39.5 10.5,39.5C 10.2529,36.0613 10.5863,32.728 11.5,29.5C 13.8333,28.8333 16.1667,28.1667 18.5,27.5 Z"/></g>
<g><path style="opacity:1" fill="#4ec7dc" d="M 3.5,28.5 C 6.05449,29.388 8.72116,29.7214 11.5,29.5C 10.5863,32.728 10.2529,36.0613 10.5,39.5C 7.83333,39.5 5.16667,39.5 2.5,39.5C 2.18503,35.6286 2.51836,31.9619 3.5,28.5 Z"/></g>
</svg>
